<?xml version="1.0" encoding="utf-8"?>
<!-- Generator: Adobe Illustrator 16.0.0, SVG Export Plug-In . SVG Version: 6.00 Build 0)  -->
<!DOCTYPE svg PUBLIC "-//W3C//DTD SVG 1.1//EN" "http://www.w3.org/Graphics/SVG/1.1/DTD/svg11.dtd">
<svg version="1.1" xmlns="http://www.w3.org/2000/svg" xmlns:xlink="http://www.w3.org/1999/xlink" x="0px" y="0px" width="642px"
	 height="256px" viewBox="0 0 642 256" style="enable-background:new 0 0 642 256;" xml:space="preserve">
<style type="text/css">
<![CDATA[
	.st0{fill:#E1667F;}
	.st1{fill:#FFFFFF;}
	.st2{fill:none;}
	.st3{fill:#65E1CE;}
]]>
</style>
<g id="logo">
	<g id="nice_x5F_b">
		<path class="st3" d="M485.736,224.727c-25.96-0.606-50.421-7.471-71.538-24.268c-9.014-7.168-21.696-17.228-22.002-25.042
			c0-5.19,9.29-9.062,14.195-2.603c15.354,20.785,33.635,29.553,53.888,34.019c35.911,7.921,68.389,2.796,98.483-18.789
			c9.507-6.816,29.434-22.062,33.897-54.051c1.036-5.589,15.078-6.202,13.536,3.757c-1.507,9.73-5.191,20.392-11.44,30.684
			c-13.866,22.817-34.22,37.593-58.811,47.04C519.984,221.593,503.426,224.461,485.736,224.727z"/>
		<g>
			<path class="st2" d="M492.833,182.939c-2.144-0.047-2.479,1.416-2.46,3.104c0.037,3.038,3.02,7.511,5.106,7.558
				c2.181,0.047,2.33-1.565,2.349-2.646C497.819,186.975,495.173,182.995,492.833,182.939z"/>
			<path class="st2" d="M469.33,184.021c-3.233,0.886-5.35,3.122-6.253,6.365c-0.336,1.192-0.047,2.47,1.379,2.665
				c3.569,0.503,5.358-2.004,7.045-4.529l0.773-1.762C472.312,184.515,471.212,183.508,469.33,184.021z"/>
			<path class="st2" d="M473.66,161.353c-2.609,0.047-6.915,4.613-6.804,7.185c0.057,1.594,0.96,2.266,2.424,2.256
				c2.562-0.01,6.868-4.678,6.766-7.204C475.98,161.986,475.17,161.324,473.66,161.353z"/>
			<path class="st2" d="M446.866,173.495c-1.779,0.522-3.793,1.38-3.438,3.645c0.363,2.228,2.534,1.779,3.504,1.845
				c3.336,0.121,6.795-0.8,7.492-2.609c0.496-1.152-0.271-2.349-0.271-2.349C451.898,172.229,449.327,172.769,446.866,173.495z"/>
			<path class="st2" d="M429.862,166.188c-1.604,0.643-2.557,3.874-2.66,6.257c-0.069,1.716,0.069,3.762,2.175,4.116
				c2.062,0.355,2.332-1.689,2.679-2.521c1.108-2.895,1.762-5.245,0.211-7.43C432.267,166.61,431.467,165.545,429.862,166.188z"/>
			<path class="st2" d="M504.908,166.338c-1.641,0.01-2.73,0.728-2.722,2.479c0.01,2.19,4.716,5.685,8.09,5.74
				c1.09-0.019,2.404-0.438,2.506-2.236C512.923,169.982,508.049,166.329,504.908,166.338z"/>
			<path class="st2" d="M508.704,153.657c-0.336-2.33-2.47-1.846-4.119-1.977c-2.601,0.02-5.153,0.289-6.934,2.479
				c-0.765,0.941-0.289,1.966,0.577,2.609c2.34,1.733,4.837,1.155,7.307,0.289C507.194,156.49,509.002,155.754,508.704,153.657z"/>
			<path class="st2" d="M535.348,179.221c-2.349-1.677-4.874-1.248-7.307-0.261c-1.696,0.681-3.746,1.501-3.187,3.84
				c0.512,2.171,2.665,1.621,3.923,1.78c3.02,0.027,5.479-0.447,7.147-2.777C536.671,180.768,536.224,179.854,535.348,179.221z"/>
			<path class="st2" d="M570.479,150.415c-2.926-0.093-7.269-3.383-7.297-5.582c-0.027-1.92,1.296-2.329,2.843-2.339
				c3.149,0,7.549,3.494,7.456,5.871C573.406,150.434,571.952,150.415,570.479,150.415z"/>
			<path class="st0" d="M583.196,133.188c-1.917-0.438-26.167,2.521-24.646,7.743c2.604,12.027-4.896,23.191-16.77,26.454
				c-12.399,3.406-25.216-3.885-28.622-16.287c-0.396-1.439-0.421-4.327-3.713-4.348s-88.396,15.625-92.312,18.042
				c-3.917,2.416-2,5.646-2,5.646c4.017,6.133,8.577,9.813,14.328,14.291c20.734,16.144,88.234,35.271,138.363-16.178
				c8.291-8.51,13.597-18.815,16.504-30.353C585.028,135.411,585.113,133.625,583.196,133.188z M432.056,174.04
				c-0.347,0.832-0.616,2.877-2.679,2.521c-2.105-0.354-2.244-2.4-2.175-4.116c0.104-2.383,1.056-5.614,2.66-6.257
				c1.604-0.644,2.404,0.422,2.404,0.422C433.817,168.795,433.164,171.146,432.056,174.04z M454.424,176.375
				c-0.697,1.81-4.156,2.73-7.492,2.609c-0.97-0.065-3.141,0.383-3.504-1.845c-0.354-2.265,1.659-3.122,3.438-3.645
				c2.461-0.727,5.032-1.267,7.287,0.531C454.153,174.026,454.92,175.223,454.424,176.375z M471.501,188.521
				c-1.687,2.525-3.476,5.032-7.045,4.529c-1.426-0.195-1.715-1.473-1.379-2.665c0.903-3.243,3.02-5.479,6.253-6.365
				c1.882-0.513,2.982,0.494,2.944,2.739L471.501,188.521z M469.28,170.793c-1.464,0.01-2.367-0.662-2.424-2.256
				c-0.111-2.571,4.194-7.138,6.804-7.185c1.51-0.028,2.32,0.634,2.386,2.236C476.148,166.115,471.843,170.783,469.28,170.793z
				 M495.479,193.601c-2.087-0.047-5.069-4.52-5.106-7.558c-0.019-1.688,0.316-3.15,2.46-3.104c2.34,0.056,4.986,4.035,4.995,8.015
				C497.81,192.035,497.66,193.647,495.479,193.601z M498.229,156.77c-0.866-0.644-1.342-1.668-0.577-2.609
				c1.78-2.19,4.333-2.46,6.934-2.479c1.649,0.131,3.783-0.354,4.119,1.977c0.298,2.097-1.51,2.833-3.169,3.401
				C503.065,157.925,500.568,158.503,498.229,156.77z M510.276,174.558c-3.374-0.056-8.08-3.55-8.09-5.74
				c-0.009-1.752,1.081-2.47,2.722-2.479c3.141-0.009,8.015,3.645,7.874,5.983C512.681,174.12,511.366,174.539,510.276,174.558z
				 M535.925,181.803c-1.668,2.33-4.128,2.805-7.147,2.777c-1.258-0.159-3.411,0.391-3.923-1.78c-0.56-2.339,1.49-3.159,3.187-3.84
				c2.433-0.987,4.958-1.416,7.307,0.261C536.224,179.854,536.671,180.768,535.925,181.803z M570.479,150.415
				c-2.926-0.093-7.269-3.383-7.297-5.582c-0.027-1.92,1.296-2.329,2.843-2.339c3.149,0,7.549,3.494,7.456,5.871
				C573.406,150.434,571.952,150.415,570.479,150.415z"/>
		</g>
		<g>
			<path class="st1" d="M94.126,93.355c4.369-0.145,8.01,0.475,10.923,1.856c2.911,1.386,5.206,3.425,6.882,6.118
				c0.509,0.801,0.91,1.657,1.202,2.566c0.29,0.912,0.581,1.84,0.874,2.786c0.145,0.583,0.235,1.13,0.272,1.638
				c0.036,0.511,0.126,1.021,0.273,1.529c0,0.438,0.035,0.729,0.109,0.874c0.145,1.021,0.218,2.075,0.218,3.169
				c0,1.092,0,2.148,0,3.167v9.722v17.697c0,1.383-0.019,2.713-0.055,3.986c-0.037,1.274-0.564,2.094-1.584,2.458
				c-0.437,0.146-0.946,0.219-1.529,0.219c-0.584,0-1.166,0-1.748,0h-5.898c-0.873,0-1.656-0.055-2.348-0.164
				c-0.693-0.109-1.221-0.419-1.584-0.928c-0.292-0.438-0.456-1.002-0.492-1.694c-0.037-0.691-0.055-1.438-0.055-2.238v-7.647
				v-16.276c0-2.693-0.109-5.188-0.328-7.481c-0.218-2.295-0.873-4.242-1.965-5.845c-1.021-1.456-2.514-2.476-4.479-3.059
				c-0.364-0.145-0.747-0.219-1.147-0.219s-0.818-0.072-1.256-0.218c-0.365-0.072-0.818-0.091-1.365-0.055
				c-0.547,0.037-0.966,0.093-1.256,0.163c-0.293,0.073-0.546,0.109-0.766,0.109c-0.218,0-0.436,0.037-0.654,0.109
				c-1.676,0.438-3.023,1.021-4.042,1.748c-2.331,1.676-3.714,4.115-4.151,7.318c-0.437,3.205-0.654,6.811-0.654,10.814v13.654
				v6.663c0,0.656,0,1.312,0,1.966c0,0.656-0.11,1.202-0.328,1.64c-0.365,0.802-0.947,1.274-1.748,1.42
				c-0.803,0.146-1.785,0.219-2.949,0.219h-5.461c-0.804,0-1.604-0.036-2.404-0.109c-0.803-0.072-1.384-0.329-1.748-0.765
				c-0.51-0.655-0.747-1.602-0.709-2.841c0.035-1.237,0.054-2.403,0.054-3.495v-14.855v-24.032v-5.571
				c0-0.801,0.018-1.529,0.055-2.186c0.036-0.654,0.235-1.201,0.601-1.637c0.145-0.219,0.383-0.383,0.711-0.492
				c0.327-0.109,0.672-0.199,1.037-0.273h0.547c0.363-0.072,0.745-0.109,1.146-0.109c0.399,0,0.781,0,1.146,0h4.589
				c0.581,0,1.146,0.02,1.692,0.055c0.547,0.038,1.038,0.129,1.475,0.273c0.509,0.219,0.855,0.547,1.037,0.982
				c0.182,0.438,0.346,0.947,0.492,1.529c0.072,0.292,0.091,0.547,0.055,0.766c-0.037,0.218,0.018,0.436,0.164,0.655
				c0.145,0.364,0.273,0.584,0.383,0.655c0.109,0.072,0.272,0.183,0.491,0.327c0.8,0.073,1.456-0.198,1.966-0.818
				c0.509-0.618,1.055-1.109,1.639-1.476c1.967-1.455,4.15-2.621,6.555-3.494c0.654-0.22,1.327-0.364,2.021-0.438
				c0.691-0.072,1.437-0.182,2.239-0.328c0.219-0.072,0.546-0.09,0.982-0.055C93.688,93.447,93.979,93.43,94.126,93.355z"/>
			<path class="st1" d="M133.776,74.021c0.509,0.583,0.765,1.457,0.765,2.621c0,1.166,0,2.294,0,3.386c0,0.948,0,1.931,0,2.95
				s-0.256,1.712-0.765,2.075c-0.437,0.364-1.002,0.585-1.693,0.655c-0.692,0.073-1.438,0.109-2.238,0.109h-6.118
				c-0.802,0-1.513-0.036-2.13-0.109c-0.619-0.07-1.146-0.291-1.584-0.655c-0.291-0.218-0.491-0.637-0.602-1.257
				c-0.108-0.617-0.182-1.31-0.218-2.074c-0.038-0.765-0.038-1.547,0-2.349c0.036-0.802,0.055-1.492,0.055-2.076
				c0-0.582,0.018-1.11,0.055-1.584c0.036-0.472,0.163-0.891,0.383-1.255c0.145-0.291,0.345-0.51,0.601-0.656
				c0.254-0.146,0.527-0.29,0.818-0.438c0.146,0,0.328-0.017,0.547-0.055c0.219-0.035,0.399-0.054,0.546-0.054h7.975
				c0.728,0,1.419,0.036,2.075,0.108C132.903,73.439,133.411,73.657,133.776,74.021z M134.541,145.133
				c0,1.458-0.038,2.695-0.109,3.715c-0.073,1.021-0.729,1.711-1.966,2.075c-0.438,0.146-0.912,0.201-1.42,0.164
				c-0.511-0.035-1.057-0.055-1.639-0.055h-6.117c-0.656,0-1.293-0.036-1.912-0.109c-0.619-0.071-1.075-0.29-1.365-0.655
				c-0.438-0.51-0.674-1.148-0.71-1.912c-0.037-0.766-0.055-1.584-0.055-2.458V99.801c0-0.729,0-1.456,0-2.186
				c0-0.727,0.146-1.311,0.438-1.748c0.437-0.508,1.054-0.835,1.856-0.982c0.146-0.072,0.344-0.09,0.601-0.055
				c0.255,0.038,0.454,0.019,0.601-0.055h5.463c0.437,0,0.928-0.018,1.475-0.055c0.545-0.036,1-0.017,1.365,0.055h0.873
				c0.438,0.146,0.837,0.257,1.201,0.328c0.364,0.072,0.656,0.292,0.875,0.656c0.29,0.364,0.454,0.873,0.491,1.527
				c0.036,0.656,0.055,1.35,0.055,2.076V145.133z"/>
			<path class="st1" d="M165.782,93.246c5.898-0.145,10.83,0.729,14.801,2.621c3.969,1.896,7.117,4.589,9.448,8.085
				c1.165,1.747,2.038,3.751,2.622,6.008c0.145,0.364,0.273,0.838,0.383,1.419c0.109,0.584,0.09,1.092-0.055,1.529
				c-0.293,0.803-0.803,1.256-1.529,1.366c-0.729,0.109-1.604,0.163-2.622,0.163h-5.68c-0.655,0-1.33,0-2.021,0
				c-0.692,0-1.257-0.145-1.692-0.437c-0.585-0.29-0.984-0.746-1.202-1.366c-0.218-0.617-0.51-1.256-0.874-1.911
				c-0.438-0.8-0.912-1.528-1.42-2.185c-0.51-0.654-1.093-1.237-1.748-1.748c-1.02-0.654-2.148-1.164-3.386-1.529
				c-0.437-0.145-0.874-0.218-1.312-0.218c-0.437,0-0.838-0.071-1.201-0.218h-1.092c-1.458,0-2.622,0.146-3.496,0.436
				c-2.113,0.656-3.824,1.658-5.134,3.005c-1.312,1.349-2.368,2.968-3.168,4.86c-0.366,0.803-0.639,1.657-0.819,2.566
				c-0.184,0.912-0.382,1.877-0.602,2.896c-0.072,0.292-0.108,0.583-0.108,0.874s-0.038,0.584-0.109,0.874
				c-0.147,0.729-0.202,1.748-0.164,3.058c0.036,1.312,0.127,2.332,0.273,3.059c0,0.584,0.036,0.984,0.108,1.201
				c0.146,0.512,0.236,1.021,0.273,1.53c0.036,0.511,0.127,1.021,0.273,1.529c0.582,1.677,1.273,3.206,2.076,4.588
				c0.8,1.386,1.818,2.551,3.059,3.496c0.289,0.218,0.727,0.474,1.311,0.765c0.8,0.51,1.619,0.838,2.457,0.982
				c0.836,0.146,1.875,0.292,3.113,0.438c0.145,0,0.364,0,0.656,0c0.289,0,0.508-0.035,0.655-0.109h0.983
				c0.508-0.146,1-0.273,1.474-0.383s0.929-0.234,1.366-0.383c2.185-0.945,3.859-2.329,5.024-4.15
				c0.29-0.363,0.546-0.781,0.765-1.256c0.219-0.473,0.399-0.891,0.547-1.257c0.289-0.8,0.545-1.51,0.764-2.129
				c0.219-0.618,0.727-1.11,1.529-1.476c0.656-0.29,1.711-0.418,3.168-0.382c1.456,0.038,2.657,0.054,3.605,0.054
				c0.508,0,1.037-0.016,1.583-0.054c0.546-0.036,1,0.019,1.365,0.163h0.874c0.291,0.074,0.582,0.129,0.875,0.164
				c0.289,0.039,0.508,0.129,0.655,0.273c0.362,0.291,0.601,0.711,0.71,1.257s0.09,1.111-0.055,1.692
				c-0.655,2.403-1.459,4.553-2.404,6.445c-2.986,5.608-7.756,9.503-14.31,11.688c-0.729,0.217-1.493,0.381-2.294,0.491
				c-0.802,0.109-1.603,0.272-2.402,0.491c-0.438,0.071-0.874,0.108-1.311,0.108c-0.438,0-0.875,0.036-1.312,0.109h-1.201
				c-0.366,0.146-0.911,0.2-1.64,0.165c-0.729-0.037-1.274-0.092-1.638-0.165c-0.584-0.146-1.11-0.201-1.584-0.163
				c-0.475,0.036-0.966-0.019-1.475-0.164c-0.365-0.073-0.729-0.128-1.093-0.163c-0.365-0.038-0.729-0.092-1.092-0.164
				c-0.803-0.219-1.567-0.437-2.294-0.655c-0.729-0.219-1.421-0.474-2.075-0.765c-3.424-1.456-6.301-3.332-8.631-5.626
				c-2.331-2.294-4.224-5.151-5.68-8.575c-0.365-0.655-0.655-1.365-0.873-2.13c-0.219-0.765-0.438-1.546-0.656-2.349
				c-0.072-0.29-0.108-0.562-0.108-0.818s-0.074-0.564-0.22-0.93c-0.146-0.508-0.219-1.037-0.219-1.584
				c0-0.545-0.072-1.073-0.217-1.583v-1.857c-0.148-0.363-0.22-0.781-0.22-1.257c0-0.473,0.071-0.891,0.22-1.256
				c0.07-0.363,0.07-0.691,0-0.982c-0.074-0.291-0.074-0.582,0-0.875c0.145-0.508,0.199-0.982,0.163-1.42
				c-0.038-0.437,0.017-0.873,0.164-1.311c0.364-1.311,0.655-2.566,0.874-3.769c0.219-1.201,0.545-2.384,0.982-3.55
				c1.602-3.714,3.622-6.809,6.062-9.285c2.439-2.475,5.553-4.479,9.34-6.008c1.02-0.438,2.076-0.746,3.168-0.929
				c1.092-0.181,2.221-0.418,3.387-0.71c0.582-0.072,1.128-0.109,1.638-0.109C164.651,93.355,165.198,93.32,165.782,93.246z"/>
			<path class="st1" d="M250.547,122.412c0.146,0.584,0.146,1.238,0,1.967c-0.147,0.729-0.401,1.201-0.765,1.42
				c-0.365,0.291-0.893,0.491-1.584,0.601c-0.693,0.109-1.457,0.183-2.293,0.218c-0.839,0.038-1.678,0.038-2.514,0
				c-0.838-0.035-1.584-0.055-2.239-0.055h-26.653c-0.51,0-1.002,0-1.475,0c-0.475,0-0.893,0.074-1.256,0.219
				c-0.584,0.292-0.947,0.584-1.092,0.873c-0.148,0.148-0.293,0.42-0.438,0.82c-0.146,0.401-0.184,0.783-0.109,1.146
				c0.146,0.438,0.235,0.857,0.273,1.257c0.035,0.401,0.125,0.819,0.273,1.257c0.581,1.747,1.291,3.187,2.129,4.314
				c0.837,1.13,1.983,2.129,3.441,3.004c0.582,0.365,1.183,0.601,1.803,0.711c0.617,0.107,1.256,0.271,1.912,0.49
				c0.581,0.146,1.381,0.257,2.402,0.328c1.019,0.073,1.893,0.037,2.622-0.109h0.982c0.728-0.146,1.401-0.309,2.021-0.492
				c0.618-0.181,1.219-0.381,1.803-0.601c0.727-0.362,1.547-0.837,2.458-1.42c0.909-0.582,1.584-1.163,2.021-1.747
				c0.364-0.51,0.746-1,1.147-1.475c0.399-0.473,0.891-0.82,1.474-1.039c0.729-0.363,1.656-0.527,2.787-0.49
				c1.127,0.037,2.165,0.055,3.113,0.055c0.436,0,0.891-0.018,1.364-0.055c0.473-0.037,0.892,0.019,1.257,0.163h1.092
				c0.727,0.147,1.238,0.327,1.529,0.546c0.291,0.147,0.454,0.476,0.491,0.983c0.036,0.51-0.019,0.947-0.163,1.312
				c-0.365,1.02-0.766,1.93-1.201,2.73c-0.438,0.802-0.947,1.604-1.53,2.403c-1.603,2.403-3.424,4.333-5.462,5.79
				c-2.039,1.457-4.588,2.694-7.646,3.714c-0.802,0.289-1.602,0.472-2.402,0.546c-0.803,0.072-1.639,0.218-2.514,0.436
				c-0.291,0.072-0.6,0.092-0.928,0.056c-0.327-0.038-0.639-0.02-0.928,0.054h-1.202c-0.365,0.146-0.784,0.2-1.257,0.165
				c-0.475-0.037-0.892-0.092-1.256-0.165c-0.583-0.073-1.092-0.073-1.529,0c-0.437,0.073-0.911,0.037-1.42-0.109
				c-0.365-0.146-0.765-0.218-1.201-0.218c-0.438,0-0.838-0.073-1.202-0.218c-0.802-0.147-1.603-0.312-2.403-0.492
				s-1.529-0.453-2.185-0.819c-0.802-0.29-1.548-0.563-2.239-0.819c-0.692-0.254-1.33-0.562-1.911-0.928
				c-2.331-1.456-4.407-3.148-6.226-5.08c-1.822-1.929-3.315-4.168-4.48-6.718c-0.364-0.801-0.654-1.619-0.873-2.458
				c-0.219-0.836-0.51-1.693-0.874-2.567c-0.073-0.29-0.108-0.562-0.108-0.818c0-0.255-0.039-0.527-0.109-0.819
				c-0.293-0.873-0.475-1.819-0.547-2.84c-0.073-1.02-0.146-2.038-0.219-3.059c0-0.364-0.018-0.765-0.055-1.202
				c-0.037-0.437-0.018-0.836,0.055-1.201v-1.312l0.328-2.621c0.29-1.238,0.547-2.439,0.765-3.605
				c0.218-1.163,0.546-2.256,0.983-3.275c3.129-7.574,8.446-12.928,15.948-16.059c1.019-0.438,2.057-0.746,3.113-0.929
				c1.054-0.181,2.165-0.418,3.331-0.71c0.582-0.072,1.129-0.109,1.639-0.109c0.509,0,1.055-0.035,1.639-0.109
				c3.714-0.071,6.898,0.347,9.559,1.257c2.656,0.911,5.041,2.095,7.154,3.55c0.655,0.438,1.311,0.928,1.967,1.475
				c0.655,0.547,1.236,1.111,1.747,1.693c0.219,0.365,0.509,0.655,0.874,0.874c0.582,0.802,1.129,1.622,1.639,2.458
				c0.508,0.838,1.055,1.693,1.639,2.566c0.363,0.656,0.672,1.33,0.928,2.021c0.255,0.691,0.527,1.438,0.82,2.238
				c0.363,0.948,0.654,1.932,0.873,2.949c0.219,1.021,0.473,2.041,0.766,3.059c0.145,0.584,0.199,1.222,0.163,1.912
				c-0.037,0.693,0.017,1.329,0.164,1.912V122.412z M234.161,115.967c0.51-0.727,0.564-1.619,0.164-2.676
				c-0.4-1.055-0.709-1.838-0.929-2.35c-1.021-1.965-2.367-3.477-4.041-4.532c-1.677-1.055-4.006-1.62-6.991-1.692
				c-0.219,0.146-0.475,0.182-0.765,0.109c-0.292-0.072-0.547-0.072-0.765,0c-0.365,0.146-0.765,0.236-1.201,0.271
				c-0.438,0.039-0.838,0.129-1.201,0.274c-3.207,1.02-5.572,3.022-7.102,6.007c-0.146,0.293-0.311,0.674-0.491,1.147
				c-0.183,0.474-0.312,0.948-0.382,1.42c-0.074,0.474-0.055,0.929,0.055,1.365c0.109,0.438,0.344,0.802,0.709,1.093
				c0.583,0.365,1.383,0.547,2.403,0.547c1.02,0,2.002,0,2.95,0H228.7c1.019,0,2.093-0.018,3.223-0.056
				C233.05,116.859,233.796,116.551,234.161,115.967z"/>
			<path class="st1" d="M279.82,93.246c5.899-0.145,10.831,0.729,14.802,2.621c3.969,1.896,7.117,4.589,9.449,8.085
				c1.164,1.747,2.037,3.751,2.621,6.008c0.145,0.364,0.272,0.838,0.383,1.419c0.109,0.584,0.09,1.092-0.055,1.529
				c-0.292,0.803-0.803,1.256-1.529,1.366c-0.729,0.109-1.604,0.163-2.622,0.163h-5.681c-0.655,0-1.329,0-2.021,0
				c-0.692,0-1.257-0.145-1.692-0.437c-0.584-0.29-0.984-0.746-1.203-1.366c-0.217-0.617-0.51-1.256-0.873-1.911
				c-0.438-0.8-0.912-1.528-1.42-2.185c-0.51-0.654-1.093-1.237-1.748-1.748c-1.021-0.654-2.148-1.164-3.387-1.529
				c-0.437-0.145-0.873-0.218-1.311-0.218c-0.437,0-0.838-0.071-1.201-0.218h-1.092c-1.458,0-2.623,0.146-3.496,0.436
				c-2.113,0.656-3.823,1.658-5.134,3.005c-1.312,1.349-2.368,2.968-3.169,4.86c-0.364,0.803-0.638,1.657-0.818,2.566
				c-0.184,0.912-0.383,1.877-0.601,2.896c-0.073,0.292-0.109,0.583-0.109,0.874s-0.038,0.584-0.11,0.874
				c-0.146,0.729-0.2,1.748-0.163,3.058c0.036,1.312,0.126,2.332,0.273,3.059c0,0.584,0.036,0.984,0.109,1.201
				c0.145,0.512,0.235,1.021,0.272,1.53c0.036,0.511,0.127,1.021,0.273,1.529c0.582,1.677,1.273,3.206,2.076,4.588
				c0.801,1.386,1.818,2.551,3.058,3.496c0.29,0.218,0.728,0.474,1.312,0.765c0.801,0.51,1.619,0.838,2.457,0.982
				c0.836,0.146,1.875,0.292,3.113,0.438c0.145,0,0.363,0,0.656,0c0.289,0,0.508-0.035,0.655-0.109h0.982
				c0.509-0.146,1.001-0.273,1.475-0.383c0.473-0.109,0.929-0.234,1.366-0.383c2.184-0.945,3.858-2.329,5.024-4.15
				c0.29-0.363,0.546-0.781,0.765-1.256c0.219-0.473,0.399-0.891,0.547-1.257c0.289-0.8,0.545-1.51,0.764-2.129
				c0.219-0.618,0.728-1.11,1.529-1.476c0.655-0.29,1.71-0.418,3.168-0.382c1.456,0.038,2.657,0.054,3.604,0.054
				c0.509,0,1.038-0.016,1.584-0.054c0.546-0.036,1.001,0.019,1.366,0.163h0.873c0.291,0.074,0.582,0.129,0.874,0.164
				c0.29,0.039,0.509,0.129,0.655,0.273c0.363,0.291,0.602,0.711,0.711,1.257c0.108,0.546,0.09,1.111-0.055,1.692
				c-0.656,2.403-1.459,4.553-2.404,6.445c-2.986,5.608-7.755,9.503-14.309,11.688c-0.729,0.217-1.494,0.381-2.295,0.491
				c-0.802,0.109-1.603,0.272-2.402,0.491c-0.438,0.071-0.875,0.108-1.312,0.108s-0.874,0.036-1.311,0.109h-1.201
				c-0.366,0.146-0.912,0.2-1.64,0.165c-0.729-0.037-1.274-0.092-1.639-0.165c-0.583-0.146-1.11-0.201-1.583-0.163
				c-0.475,0.036-0.966-0.019-1.476-0.164c-0.365-0.073-0.729-0.128-1.092-0.163c-0.365-0.038-0.729-0.092-1.092-0.164
				c-0.803-0.219-1.567-0.437-2.294-0.655c-0.729-0.219-1.421-0.474-2.076-0.765c-3.424-1.456-6.3-3.332-8.63-5.626
				c-2.331-2.294-4.225-5.151-5.68-8.575c-0.365-0.655-0.655-1.365-0.873-2.13c-0.219-0.765-0.438-1.546-0.656-2.349
				c-0.073-0.29-0.109-0.562-0.109-0.818s-0.073-0.564-0.219-0.93c-0.146-0.508-0.219-1.037-0.219-1.584
				c0-0.545-0.072-1.073-0.218-1.583v-1.857c-0.147-0.363-0.218-0.781-0.218-1.257c0-0.473,0.07-0.891,0.218-1.256
				c0.072-0.363,0.072-0.691,0-0.982c-0.073-0.291-0.073-0.582,0-0.875c0.146-0.508,0.2-0.982,0.164-1.42
				c-0.038-0.437,0.017-0.873,0.163-1.311c0.364-1.311,0.656-2.566,0.875-3.769c0.219-1.201,0.545-2.384,0.982-3.55
				c1.602-3.714,3.622-6.809,6.062-9.285c2.439-2.475,5.553-4.479,9.34-6.008c1.02-0.438,2.075-0.746,3.168-0.929
				c1.092-0.181,2.221-0.418,3.387-0.71c0.581-0.072,1.128-0.109,1.639-0.109C278.69,93.355,279.237,93.32,279.82,93.246z"/>
			<path class="st1" d="M341.975,93.355c0.801,0,1.511,0.074,2.132,0.219c0.616,0.146,1.109,0.475,1.474,0.982
				c0.437,0.584,0.656,1.585,0.656,3.005c0,1.419,0,2.676,0,3.769c0,0.801,0.017,1.711,0.054,2.73
				c0.035,1.021-0.093,1.821-0.383,2.403c-0.292,0.51-0.709,0.838-1.256,0.983c-0.545,0.146-1.166,0.219-1.856,0.219
				c-0.694,0-1.419-0.037-2.186-0.109c-0.764-0.072-1.474-0.036-2.13,0.109c-0.511,0.146-1.02,0.236-1.528,0.272
				c-0.512,0.038-0.983,0.128-1.422,0.272c-1.166,0.365-2.331,0.893-3.495,1.585c-1.166,0.692-2.076,1.474-2.731,2.349
				c-0.364,0.583-0.747,1.184-1.146,1.802c-0.402,0.62-0.784,1.256-1.148,1.911c-0.217,0.584-0.42,1.186-0.6,1.803
				c-0.182,0.62-0.348,1.221-0.492,1.803c-0.146,0.51-0.217,1.037-0.217,1.584s-0.074,1.074-0.221,1.584
				c-0.073,0.292-0.092,0.565-0.054,0.819c0.035,0.256,0.018,0.491-0.054,0.71v1.748c-0.147,0.51-0.186,1.075-0.111,1.692
				c0.072,0.62,0.111,1.22,0.111,1.804v6.99v9.285c0,0.946-0.039,1.82-0.111,2.62c-0.074,0.804-0.291,1.458-0.654,1.968
				c-0.146,0.218-0.383,0.381-0.711,0.491c-0.327,0.109-0.674,0.201-1.037,0.273h-0.546c-0.366,0.073-0.765,0.109-1.202,0.109
				c-0.436,0-0.838,0-1.201,0h-4.697c-0.438-0.072-0.893-0.109-1.365-0.109c-0.475,0-0.967,0-1.475,0
				c-0.365-0.145-0.729-0.273-1.093-0.384c-0.364-0.109-0.619-0.344-0.765-0.71c-0.291-0.362-0.455-0.891-0.491-1.583
				c-0.038-0.691-0.055-1.4-0.055-2.131v-7.427v-30.806V99.91c0-0.728,0-1.438,0-2.131c0-0.69,0.145-1.256,0.437-1.693
				c0.363-0.582,0.91-0.945,1.639-1.092c0.727-0.146,1.602-0.219,2.621-0.219h5.572c0.873,0,1.639,0.055,2.293,0.164
				c0.656,0.109,1.164,0.456,1.529,1.038c0.219,0.364,0.345,0.874,0.383,1.529c0.036,0.655,0.09,1.294,0.164,1.911
				c0.07,0.62,0.199,1.184,0.383,1.693c0.18,0.51,0.525,0.765,1.038,0.765c0.144-0.146,0.288-0.219,0.437-0.219
				c0.145,0,0.289-0.071,0.436-0.218c0.438-0.363,0.82-0.782,1.146-1.258c0.328-0.472,0.747-0.89,1.257-1.255
				c0.292-0.219,0.547-0.454,0.765-0.71c0.219-0.254,0.473-0.492,0.766-0.71c0.656-0.438,1.327-0.874,2.021-1.312
				c0.69-0.436,1.4-0.836,2.129-1.201c0.729-0.29,1.475-0.547,2.239-0.764c0.766-0.22,1.548-0.438,2.349-0.656
				c0.22-0.072,0.636-0.091,1.257-0.055C341.445,93.557,341.829,93.502,341.975,93.355z"/>
			<path class="st1" d="M399.979,122.412c0.146,0.584,0.146,1.238,0,1.967c-0.147,0.729-0.401,1.201-0.766,1.42
				c-0.365,0.291-0.892,0.491-1.583,0.601c-0.693,0.109-1.458,0.183-2.295,0.218c-0.838,0.038-1.676,0.038-2.512,0
				c-0.839-0.035-1.584-0.055-2.24-0.055h-26.652c-0.511,0-1.003,0-1.475,0c-0.476,0-0.893,0.074-1.257,0.219
				c-0.583,0.292-0.946,0.584-1.092,0.873c-0.146,0.148-0.292,0.42-0.438,0.82c-0.146,0.401-0.183,0.783-0.108,1.146
				c0.145,0.438,0.235,0.857,0.271,1.257c0.037,0.401,0.128,0.819,0.274,1.257c0.582,1.747,1.292,3.187,2.13,4.314
				c0.837,1.13,1.983,2.129,3.441,3.004c0.582,0.365,1.183,0.601,1.802,0.711c0.617,0.107,1.256,0.271,1.912,0.49
				c0.582,0.146,1.383,0.257,2.402,0.328c1.02,0.073,1.893,0.037,2.622-0.109h0.984c0.727-0.146,1.399-0.309,2.02-0.492
				c0.617-0.181,1.219-0.381,1.803-0.601c0.727-0.362,1.546-0.837,2.458-1.42c0.909-0.582,1.584-1.163,2.02-1.747
				c0.364-0.51,0.746-1,1.148-1.475c0.398-0.473,0.891-0.82,1.475-1.039c0.727-0.363,1.655-0.527,2.785-0.49
				c1.128,0.037,2.165,0.055,3.112,0.055c0.438,0,0.892-0.018,1.366-0.055c0.474-0.037,0.891,0.019,1.256,0.163h1.093
				c0.728,0.147,1.237,0.327,1.529,0.546c0.29,0.147,0.454,0.476,0.492,0.983c0.036,0.51-0.02,0.947-0.164,1.312
				c-0.366,1.02-0.765,1.93-1.202,2.73c-0.438,0.802-0.947,1.604-1.529,2.403c-1.603,2.403-3.424,4.333-5.461,5.79
				c-2.04,1.457-4.589,2.694-7.647,3.714c-0.802,0.289-1.603,0.472-2.402,0.546c-0.803,0.072-1.64,0.218-2.513,0.436
				c-0.293,0.072-0.601,0.092-0.929,0.056c-0.327-0.038-0.639-0.02-0.929,0.054h-1.201c-0.365,0.146-0.784,0.2-1.257,0.165
				c-0.474-0.037-0.893-0.092-1.256-0.165c-0.583-0.073-1.093-0.073-1.528,0c-0.438,0.073-0.912,0.037-1.421-0.109
				c-0.365-0.146-0.765-0.218-1.202-0.218c-0.436,0-0.838-0.073-1.201-0.218c-0.802-0.147-1.603-0.312-2.403-0.492
				c-0.803-0.181-1.528-0.453-2.185-0.819c-0.802-0.29-1.548-0.563-2.239-0.819c-0.692-0.254-1.33-0.562-1.912-0.928
				c-2.331-1.456-4.406-3.148-6.227-5.08c-1.82-1.929-3.313-4.168-4.479-6.718c-0.364-0.801-0.655-1.619-0.874-2.458
				c-0.218-0.836-0.509-1.693-0.873-2.567c-0.074-0.29-0.109-0.562-0.109-0.818c0-0.255-0.037-0.527-0.109-0.819
				c-0.291-0.873-0.476-1.819-0.547-2.84c-0.072-1.02-0.146-2.038-0.218-3.059c0-0.364-0.019-0.765-0.055-1.202
				c-0.037-0.437-0.018-0.836,0.055-1.201v-1.312l0.327-2.621c0.291-1.238,0.547-2.439,0.766-3.605
				c0.219-1.163,0.546-2.256,0.982-3.275c3.131-7.574,8.448-12.928,15.948-16.059c1.021-0.438,2.058-0.746,3.113-0.929
				c1.056-0.181,2.166-0.418,3.333-0.71c0.581-0.072,1.127-0.109,1.638-0.109c0.509,0,1.055-0.035,1.639-0.109
				c3.715-0.071,6.899,0.347,9.558,1.257c2.658,0.911,5.043,2.095,7.155,3.55c0.655,0.438,1.311,0.928,1.966,1.475
				c0.656,0.547,1.238,1.111,1.747,1.693c0.219,0.365,0.51,0.655,0.875,0.874c0.582,0.802,1.128,1.622,1.638,2.458
				c0.51,0.838,1.056,1.693,1.64,2.566c0.363,0.656,0.672,1.33,0.928,2.021c0.254,0.691,0.527,1.438,0.819,2.238
				c0.363,0.948,0.656,1.932,0.874,2.949c0.218,1.021,0.474,2.041,0.766,3.059c0.144,0.584,0.199,1.222,0.163,1.912
				c-0.038,0.693,0.017,1.329,0.164,1.912V122.412z M383.593,115.967c0.509-0.727,0.563-1.619,0.163-2.676
				c-0.4-1.055-0.71-1.838-0.928-2.35c-1.02-1.965-2.367-3.477-4.042-4.532c-1.676-1.055-4.005-1.62-6.991-1.692
				c-0.218,0.146-0.475,0.182-0.764,0.109c-0.292-0.072-0.547-0.072-0.766,0c-0.364,0.146-0.764,0.236-1.202,0.271
				c-0.436,0.039-0.838,0.129-1.2,0.274c-3.205,1.02-5.57,3.022-7.1,6.007c-0.147,0.293-0.312,0.674-0.492,1.147
				c-0.183,0.474-0.311,0.948-0.382,1.42c-0.074,0.474-0.057,0.929,0.054,1.365c0.11,0.438,0.345,0.802,0.71,1.093
				c0.582,0.365,1.383,0.547,2.403,0.547c1.02,0,2.002,0,2.948,0h12.127c1.018,0,2.092-0.018,3.221-0.056
				C382.482,116.859,383.229,116.551,383.593,115.967z"/>
			<path class="st1" d="M412.648,151.742c0.624,0.104,1.287,0.226,1.979,0.364l38.948-7.567c-0.178-0.952-0.293-1.958-0.293-3.065
				c0-1.42,0-2.821,0-4.205v-24.36c0-1.674-0.037-3.312-0.108-4.916c-0.074-1.601-0.365-3.02-0.875-4.26
				c-0.874-2.111-2.112-3.84-3.714-5.188c-1.603-1.348-3.514-2.421-5.734-3.223c-2.222-0.801-4.696-1.348-7.428-1.64
				c-2.73-0.29-5.59-0.398-8.576-0.327c-0.146,0.146-0.528,0.184-1.146,0.109c-0.62-0.072-1.076-0.072-1.365,0
				c-0.947,0.218-1.896,0.365-2.841,0.438c-0.947,0.072-1.857,0.219-2.73,0.436c-1.458,0.438-2.878,0.894-4.261,1.366
				c-1.384,0.474-2.694,1.111-3.933,1.911c-0.365,0.219-0.693,0.438-0.983,0.656c-0.292,0.219-0.619,0.475-0.983,0.765
				c-0.291,0.292-0.51,0.475-0.654,0.546c-0.874,0.729-1.603,1.494-2.185,2.294c-0.218,0.366-0.438,0.729-0.656,1.093
				s-0.438,0.729-0.655,1.092c-0.364,0.584-0.674,1.221-0.928,1.911c-0.256,0.694-0.492,1.439-0.71,2.239
				c-0.074,0.293-0.147,0.62-0.219,0.984c-0.073,0.365-0.073,0.729,0,1.092c0.219,0.803,0.617,1.275,1.2,1.42
				c0.146,0.146,0.329,0.219,0.548,0.219c0.218,0,0.398,0.037,0.546,0.109h0.982c0.29,0.074,0.619,0.092,0.983,0.055
				c0.363-0.037,0.727-0.055,1.093-0.055h4.15c0.656,0,1.312,0,1.967,0c0.654,0,1.272-0.072,1.856-0.219
				c0.801-0.219,1.329-0.654,1.584-1.311c0.254-0.656,0.563-1.348,0.929-2.075c0.145-0.438,0.418-0.91,0.819-1.421
				c0.399-0.508,0.781-0.91,1.147-1.201c0.362-0.291,0.746-0.562,1.146-0.818c0.4-0.256,0.819-0.455,1.258-0.602
				c0.655-0.219,1.42-0.4,2.293-0.547c0.874-0.145,1.783-0.235,2.73-0.273c0.946-0.035,1.875,0,2.786,0.109
				c0.91,0.11,1.692,0.274,2.349,0.492c2.33,0.803,3.859,2.294,4.588,4.479c0.071,0.219,0.126,0.475,0.163,0.766
				c0.036,0.291,0.091,0.582,0.164,0.873c0,0.146,0,0.365,0,0.654c0,0.293-0.038,0.512-0.109,0.656
				c-0.072,0.147-0.092,0.292-0.055,0.438c0.036,0.146,0.018,0.328-0.054,0.546c-0.219,0.802-0.656,1.529-1.312,2.185
				c-1.02,1.021-2.167,1.658-3.44,1.912c-1.275,0.256-2.677,0.564-4.206,0.928c-0.583,0.147-1.13,0.219-1.638,0.219
				c-0.511,0-1.021,0.073-1.53,0.219c-0.583,0.146-1.129,0.201-1.639,0.164c-0.509-0.036-1.02,0.018-1.529,0.164
				c-0.655,0.146-1.311,0.237-1.965,0.273c-0.655,0.036-1.275,0.127-1.857,0.271c-1.021,0.219-2.039,0.402-3.059,0.547
				c-1.021,0.146-2.003,0.4-2.949,0.765c-2.478,0.802-4.516,1.748-6.117,2.841c-1.603,1.092-3.022,2.694-4.261,4.807
				c-0.365,0.655-0.655,1.401-0.873,2.238c-0.219,0.838-0.438,1.658-0.656,2.457c0,0.511-0.073,1.131-0.219,1.857
				c-0.072,0.292-0.092,0.784-0.054,1.476c0.035,0.692,0.09,1.146,0.163,1.365c0.072,0.364,0.09,0.729,0.055,1.092
				c-0.037,0.366,0.018,0.729,0.163,1.093c0.146,0.654,0.311,1.274,0.492,1.856c0.182,0.584,0.383,1.13,0.602,1.64
				c0.874,2.112,2.057,3.807,3.55,5.079c1.491,1.274,3.294,2.313,5.406,3.113C411.372,151.431,411.992,151.633,412.648,151.742z
				 M417.071,130.823c1.056-1.312,2.349-2.293,3.878-2.948c0.509-0.221,1.021-0.384,1.529-0.492c0.509-0.109,1.055-0.236,1.64-0.382
				c0.873-0.292,1.783-0.474,2.729-0.548c0.945-0.071,1.894-0.218,2.841-0.436c0.438,0,0.765-0.036,0.983-0.109
				c0.582-0.146,1.163-0.255,1.747-0.328c0.582-0.072,1.129-0.181,1.639-0.328c0.291-0.072,0.547-0.126,0.765-0.164
				c0.219-0.036,0.474-0.09,0.765-0.164c0.727,0,1.274,0.148,1.639,0.438c0.29,0.219,0.438,0.511,0.438,0.874
				c0,0.365,0.071,0.766,0.218,1.202c0.071,0.365,0.109,0.783,0.109,1.256c0,0.475-0.038,0.893-0.109,1.256v0.984
				c-0.146,0.583-0.237,1.146-0.273,1.692s-0.128,1.075-0.271,1.584c-0.584,1.894-1.421,3.479-2.514,4.751
				c-1.092,1.275-2.585,2.204-4.478,2.786c-1.166,0.366-2.424,0.601-3.769,0.71c-1.35,0.109-2.623,0.055-3.824-0.164
				c-1.202-0.219-2.312-0.563-3.332-1.038c-1.021-0.472-1.785-1.109-2.294-1.911c-0.654-0.801-1.056-1.819-1.201-3.059
				C415.633,133.956,416.016,132.135,417.071,130.823z"/>
			<path class="st1" d="M543.619,112.253v-1.091c-0.073-0.438-0.128-0.875-0.163-1.312c-0.038-0.436-0.092-0.909-0.165-1.419
				c-0.146-0.655-0.291-1.329-0.436-2.021c-0.147-0.69-0.366-1.365-0.656-2.021c-1.529-3.641-3.823-6.407-6.882-8.303
				c-0.803-0.508-1.676-0.91-2.621-1.201c-0.947-0.29-1.931-0.582-2.949-0.874c-0.365-0.145-0.693-0.218-0.983-0.218
				c-0.292,0-0.62-0.036-0.984-0.11c-0.654-0.144-1.401-0.253-2.238-0.327c-0.839-0.071-1.712-0.091-2.621-0.055
				c-0.912,0.038-1.785,0.109-2.622,0.219c-0.838,0.109-1.548,0.237-2.13,0.383c-1.458,0.51-2.77,1.037-3.933,1.584
				c-1.166,0.546-2.259,1.219-3.276,2.021c-0.656,0.437-1.35,1.075-2.076,1.911c-0.729,0.838-1.493,1.365-2.294,1.584
				c-0.365,0.147-0.71,0.092-1.038-0.164c-0.328-0.254-0.565-0.453-0.71-0.601c-0.584-0.581-1.111-1.165-1.583-1.747
				c-0.476-0.583-1.004-1.094-1.585-1.529c-1.529-1.164-3.315-2.076-5.352-2.73c-2.04-0.656-4.407-0.946-7.101-0.875
				c-0.147,0.074-0.438,0.092-0.875,0.055c-0.436-0.035-0.763-0.018-0.983,0.055c-0.728,0.146-1.42,0.256-2.074,0.328
				c-0.656,0.073-1.311,0.218-1.966,0.438c-1.24,0.364-2.387,0.838-3.44,1.42c-1.058,0.583-2.096,1.238-3.114,1.965
				c-0.511,0.366-1.057,0.857-1.639,1.475c-0.583,0.62-1.311,0.895-2.185,0.82c-0.146-0.146-0.273-0.273-0.382-0.383
				c-0.109-0.109-0.202-0.273-0.273-0.491c-0.146-0.146-0.202-0.31-0.164-0.491c0.036-0.182,0.018-0.383-0.055-0.602
				c-0.146-0.656-0.311-1.238-0.491-1.748c-0.183-0.508-0.565-0.873-1.147-1.092c-0.437-0.145-0.929-0.235-1.475-0.273
				c-0.546-0.035-1.11-0.055-1.693-0.055h-4.479c-0.364,0-0.746,0-1.146,0c-0.402,0-0.783,0.037-1.147,0.109h-0.655
				c-0.802,0.147-1.384,0.438-1.748,0.875c-0.291,0.436-0.455,0.965-0.491,1.583c-0.037,0.62-0.054,1.329-0.054,2.13v6.555v26.652
				v11.088l15.291-2.972v-1.452v-14.748c0-1.965,0.018-3.784,0.057-5.461c0.036-1.674,0.18-3.222,0.436-4.643
				c0.254-1.42,0.691-2.693,1.312-3.822c0.618-1.129,1.511-2.131,2.676-3.004c1.093-0.875,2.221-1.492,3.387-1.857
				c0.146,0,0.29-0.018,0.437-0.055c0.146-0.035,0.291-0.055,0.438-0.055c0.727-0.289,1.492-0.363,2.294-0.219
				c0.363,0.073,0.691,0.093,0.983,0.055c0.289-0.035,0.582-0.018,0.873,0.055c1.312,0.365,2.421,0.802,3.331,1.312
				s1.657,1.274,2.24,2.294c0.8,1.238,1.272,2.804,1.42,4.697c0.145,1.894,0.218,3.896,0.218,6.008v16.99l15.294-2.973v-10.304
				c0-2.986,0.126-5.735,0.383-8.248c0.253-2.512,0.999-4.604,2.239-6.28c0.945-1.457,2.475-2.549,4.587-3.277
				c0.438-0.145,0.874-0.219,1.312-0.219c0.437,0,0.873-0.072,1.311-0.218c0.363-0.072,0.745-0.091,1.146-0.055
				c0.4,0.037,0.746,0.093,1.038,0.163c0.29,0.146,0.546,0.201,0.766,0.164c0.218-0.036,0.472-0.018,0.764,0.055
				c1.456,0.438,2.692,1.166,3.714,2.186c0.655,0.654,1.147,1.402,1.474,2.238c0.329,0.838,0.638,1.803,0.93,2.895
				c0.072,0.293,0.11,0.602,0.11,0.929c0,0.328,0.035,0.639,0.108,0.929c0.071,0.437,0.109,0.874,0.109,1.311
				c0,0.438,0,0.874,0,1.311v0.875c0.145,0.365,0.199,0.764,0.163,1.201c-0.037,0.438-0.055,0.838-0.055,1.201v4.588v21.867
				c0,0.584,0,2.616,0,3.234c0,0.619,0.232,1.959,0.328,2.266c0.095,0.306,0.116,0.385,0.131,0.414
				c0.874,2.699,3.967,4.27,7.173,4.27c3.092,0,5.886-0.942,7.114-4.312c0.074-0.348,0.419-0.739,0.503-2.83
				c0.036-0.691,0.044-3.621,0.044-4.205v-24.308v-6.335c0-0.51,0.018-1.056,0.055-1.64
				C543.71,113.201,543.691,112.691,543.619,112.253z"/>
		</g>
	</g>
</g>
<g id="g">
</g>
</svg>
